<mxfile host="app.diagrams.net" agent="Mozilla/5.0 (Windows NT 10.0; Win64; x64) AppleWebKit/537.36 (KHTML, like Gecko) Chrome/140.0.0.0 Safari/537.36 Edg/140.0.0.0" version="28.1.0">
  <diagram name="ページ1" id="atLDSPD2K2ZcPOUVWXY6">
    <mxGraphModel dx="2198" dy="788" grid="1" gridSize="10" guides="1" tooltips="1" connect="1" arrows="1" fold="1" page="1" pageScale="1" pageWidth="827" pageHeight="1169" math="0" shadow="0">
      <root>
        <mxCell id="0" />
        <mxCell id="1" parent="0" />
        <mxCell id="FSzWuWInuHZMy4j3IWyz-1" value="AWS Account" style="points=[[0,0],[0.25,0],[0.5,0],[0.75,0],[1,0],[1,0.25],[1,0.5],[1,0.75],[1,1],[0.75,1],[0.5,1],[0.25,1],[0,1],[0,0.75],[0,0.5],[0,0.25]];outlineConnect=0;gradientColor=none;html=1;whiteSpace=wrap;fontSize=12;fontStyle=0;container=1;pointerEvents=0;collapsible=0;recursiveResize=0;shape=mxgraph.aws4.group;grIcon=mxgraph.aws4.group_account;strokeColor=#CD2264;fillColor=none;verticalAlign=top;align=left;spacingLeft=30;fontColor=#CD2264;dashed=0;" vertex="1" parent="1">
          <mxGeometry x="50" y="270" width="1010" height="720" as="geometry" />
        </mxCell>
        <mxCell id="FSzWuWInuHZMy4j3IWyz-8" value="Security group" style="fillColor=none;strokeColor=#DD3522;verticalAlign=top;fontStyle=0;fontColor=#DD3522;whiteSpace=wrap;html=1;" vertex="1" parent="FSzWuWInuHZMy4j3IWyz-1">
          <mxGeometry x="820" y="214" width="130" height="130" as="geometry" />
        </mxCell>
        <mxCell id="FSzWuWInuHZMy4j3IWyz-6" value="" style="sketch=0;points=[[0,0,0],[0.25,0,0],[0.5,0,0],[0.75,0,0],[1,0,0],[0,1,0],[0.25,1,0],[0.5,1,0],[0.75,1,0],[1,1,0],[0,0.25,0],[0,0.5,0],[0,0.75,0],[1,0.25,0],[1,0.5,0],[1,0.75,0]];outlineConnect=0;fontColor=#232F3E;fillColor=#ED7100;strokeColor=#ffffff;dashed=0;verticalLabelPosition=bottom;verticalAlign=top;align=center;html=1;fontSize=12;fontStyle=0;aspect=fixed;shape=mxgraph.aws4.resourceIcon;resIcon=mxgraph.aws4.ecr;" vertex="1" parent="FSzWuWInuHZMy4j3IWyz-1">
          <mxGeometry x="220" y="590" width="78" height="78" as="geometry" />
        </mxCell>
        <mxCell id="FSzWuWInuHZMy4j3IWyz-13" value="" style="sketch=0;points=[[0,0,0],[0.25,0,0],[0.5,0,0],[0.75,0,0],[1,0,0],[0,1,0],[0.25,1,0],[0.5,1,0],[0.75,1,0],[1,1,0],[0,0.25,0],[0,0.5,0],[0,0.75,0],[1,0.25,0],[1,0.5,0],[1,0.75,0]];points=[[0,0,0],[0.25,0,0],[0.5,0,0],[0.75,0,0],[1,0,0],[0,1,0],[0.25,1,0],[0.5,1,0],[0.75,1,0],[1,1,0],[0,0.25,0],[0,0.5,0],[0,0.75,0],[1,0.25,0],[1,0.5,0],[1,0.75,0]];outlineConnect=0;fontColor=#232F3E;fillColor=#E7157B;strokeColor=#ffffff;dashed=0;verticalLabelPosition=bottom;verticalAlign=top;align=center;html=1;fontSize=12;fontStyle=0;aspect=fixed;shape=mxgraph.aws4.resourceIcon;resIcon=mxgraph.aws4.cloudwatch_2;" vertex="1" parent="FSzWuWInuHZMy4j3IWyz-1">
          <mxGeometry x="540" y="590" width="78" height="78" as="geometry" />
        </mxCell>
        <mxCell id="FSzWuWInuHZMy4j3IWyz-20" value="" style="sketch=0;outlineConnect=0;fontColor=#232F3E;gradientColor=none;fillColor=#8C4FFF;strokeColor=none;dashed=0;verticalLabelPosition=bottom;verticalAlign=top;align=center;html=1;fontSize=12;fontStyle=0;aspect=fixed;pointerEvents=1;shape=mxgraph.aws4.internet_gateway;" vertex="1" parent="FSzWuWInuHZMy4j3IWyz-1">
          <mxGeometry x="846" y="240" width="78" height="78" as="geometry" />
        </mxCell>
        <UserObject label="IGW Egress-Only" placeholders="1" name="Variable" id="FSzWuWInuHZMy4j3IWyz-21">
          <mxCell style="text;html=1;strokeColor=none;fillColor=none;align=center;verticalAlign=middle;whiteSpace=wrap;overflow=hidden;fontColor=light-dark(#000000,#B17DFF);" vertex="1" parent="FSzWuWInuHZMy4j3IWyz-1">
            <mxGeometry x="837" y="324" width="96" height="20" as="geometry" />
          </mxCell>
        </UserObject>
        <mxCell id="FSzWuWInuHZMy4j3IWyz-3" value="Default VPC" style="points=[[0,0],[0.25,0],[0.5,0],[0.75,0],[1,0],[1,0.25],[1,0.5],[1,0.75],[1,1],[0.75,1],[0.5,1],[0.25,1],[0,1],[0,0.75],[0,0.5],[0,0.25]];outlineConnect=0;gradientColor=none;html=1;whiteSpace=wrap;fontSize=12;fontStyle=0;container=1;pointerEvents=0;collapsible=0;recursiveResize=0;shape=mxgraph.aws4.group;grIcon=mxgraph.aws4.group_vpc2;strokeColor=#8C4FFF;fillColor=none;verticalAlign=top;align=left;spacingLeft=30;fontColor=#AAB7B8;dashed=0;" vertex="1" parent="FSzWuWInuHZMy4j3IWyz-1">
          <mxGeometry x="30" y="150" width="740" height="410" as="geometry" />
        </mxCell>
        <mxCell id="FSzWuWInuHZMy4j3IWyz-31" value="Private subnet" style="points=[[0,0],[0.25,0],[0.5,0],[0.75,0],[1,0],[1,0.25],[1,0.5],[1,0.75],[1,1],[0.75,1],[0.5,1],[0.25,1],[0,1],[0,0.75],[0,0.5],[0,0.25]];outlineConnect=0;gradientColor=none;html=1;whiteSpace=wrap;fontSize=12;fontStyle=0;container=1;pointerEvents=0;collapsible=0;recursiveResize=0;shape=mxgraph.aws4.group;grIcon=mxgraph.aws4.group_security_group;grStroke=0;strokeColor=#00A4A6;fillColor=#E6F6F7;verticalAlign=top;align=left;spacingLeft=30;fontColor=#147EBA;dashed=0;" vertex="1" parent="FSzWuWInuHZMy4j3IWyz-3">
          <mxGeometry x="40" y="30" width="680" height="360" as="geometry" />
        </mxCell>
        <mxCell id="FSzWuWInuHZMy4j3IWyz-17" value="&lt;div style=&quot;&quot;&gt;&lt;span style=&quot;color: light-dark(rgb(0, 0, 0), rgb(216, 109, 12)); background-color: transparent;&quot;&gt;ECS Cluster&lt;/span&gt;&lt;/div&gt;" style="dashed=0;verticalAlign=top;fontStyle=0;whiteSpace=wrap;html=1;strokeColor=light-dark(#000000,#D86D0C);align=center;" vertex="1" parent="FSzWuWInuHZMy4j3IWyz-31">
          <mxGeometry x="110" y="32.5" width="460" height="285" as="geometry" />
        </mxCell>
        <mxCell id="FSzWuWInuHZMy4j3IWyz-18" value="&lt;div style=&quot;&quot;&gt;&lt;span style=&quot;color: light-dark(rgb(0, 0, 0), rgb(216, 109, 12)); background-color: transparent;&quot;&gt;ECS Service&lt;/span&gt;&lt;/div&gt;" style="dashed=0;verticalAlign=top;fontStyle=0;whiteSpace=wrap;html=1;strokeColor=light-dark(#000000,#D86D0C);align=center;" vertex="1" parent="FSzWuWInuHZMy4j3IWyz-31">
          <mxGeometry x="150" y="87.5" width="380" height="190" as="geometry" />
        </mxCell>
        <mxCell id="FSzWuWInuHZMy4j3IWyz-9" value="" style="sketch=0;points=[[0,0,0],[0.25,0,0],[0.5,0,0],[0.75,0,0],[1,0,0],[0,1,0],[0.25,1,0],[0.5,1,0],[0.75,1,0],[1,1,0],[0,0.25,0],[0,0.5,0],[0,0.75,0],[1,0.25,0],[1,0.5,0],[1,0.75,0]];outlineConnect=0;fontColor=#232F3E;fillColor=#ED7100;strokeColor=#ffffff;dashed=0;verticalLabelPosition=bottom;verticalAlign=top;align=center;html=1;fontSize=12;fontStyle=0;aspect=fixed;shape=mxgraph.aws4.resourceIcon;resIcon=mxgraph.aws4.fargate;" vertex="1" parent="FSzWuWInuHZMy4j3IWyz-31">
          <mxGeometry x="301" y="147.5" width="78" height="78" as="geometry" />
        </mxCell>
        <UserObject label="&lt;font style=&quot;color: light-dark(rgb(0, 0, 0), rgb(245, 140, 5));&quot;&gt;ECS Fargate&lt;/font&gt;" placeholders="1" name="Variable" id="FSzWuWInuHZMy4j3IWyz-24">
          <mxCell style="text;html=1;strokeColor=none;fillColor=none;align=center;verticalAlign=middle;whiteSpace=wrap;overflow=hidden;" vertex="1" parent="FSzWuWInuHZMy4j3IWyz-31">
            <mxGeometry x="300" y="237.5" width="80" height="20" as="geometry" />
          </mxCell>
        </UserObject>
        <mxCell id="FSzWuWInuHZMy4j3IWyz-12" value="" style="sketch=0;outlineConnect=0;fontColor=#232F3E;gradientColor=none;fillColor=#8C4FFF;strokeColor=none;dashed=0;verticalLabelPosition=bottom;verticalAlign=top;align=center;html=1;fontSize=12;fontStyle=0;aspect=fixed;pointerEvents=1;shape=mxgraph.aws4.application_load_balancer;" vertex="1" parent="FSzWuWInuHZMy4j3IWyz-31">
          <mxGeometry x="10" y="135" width="78" height="78" as="geometry" />
        </mxCell>
        <mxCell id="FSzWuWInuHZMy4j3IWyz-30" value="Security group" style="fillColor=none;strokeColor=#DD3522;verticalAlign=top;fontStyle=0;fontColor=#DD3522;whiteSpace=wrap;html=1;" vertex="1" parent="FSzWuWInuHZMy4j3IWyz-1">
          <mxGeometry x="440" y="10" width="130" height="130" as="geometry" />
        </mxCell>
        <mxCell id="FSzWuWInuHZMy4j3IWyz-10" value="" style="sketch=0;points=[[0,0,0],[0.25,0,0],[0.5,0,0],[0.75,0,0],[1,0,0],[0,1,0],[0.25,1,0],[0.5,1,0],[0.75,1,0],[1,1,0],[0,0.25,0],[0,0.5,0],[0,0.75,0],[1,0.25,0],[1,0.5,0],[1,0.75,0]];outlineConnect=0;fontColor=#232F3E;fillColor=#7AA116;strokeColor=#ffffff;dashed=0;verticalLabelPosition=bottom;verticalAlign=top;align=center;html=1;fontSize=12;fontStyle=0;aspect=fixed;shape=mxgraph.aws4.resourceIcon;resIcon=mxgraph.aws4.s3;" vertex="1" parent="1">
          <mxGeometry x="505" y="1050" width="78" height="78" as="geometry" />
        </mxCell>
        <mxCell id="FSzWuWInuHZMy4j3IWyz-14" value="" style="sketch=0;outlineConnect=0;fontColor=#232F3E;gradientColor=none;fillColor=#232F3D;strokeColor=none;dashed=0;verticalLabelPosition=bottom;verticalAlign=top;align=center;html=1;fontSize=12;fontStyle=0;aspect=fixed;pointerEvents=1;shape=mxgraph.aws4.internet_alt1;" vertex="1" parent="1">
          <mxGeometry x="515" y="182" width="78" height="48" as="geometry" />
        </mxCell>
        <UserObject label="Internet" placeholders="1" name="Variable" id="FSzWuWInuHZMy4j3IWyz-22">
          <mxCell style="text;html=1;strokeColor=none;fillColor=none;align=center;verticalAlign=middle;whiteSpace=wrap;overflow=hidden;" vertex="1" parent="1">
            <mxGeometry x="514" y="230" width="80" height="20" as="geometry" />
          </mxCell>
        </UserObject>
        <mxCell id="FSzWuWInuHZMy4j3IWyz-23" value="users" style="sketch=0;outlineConnect=0;gradientColor=none;fontColor=#545B64;strokeColor=none;fillColor=#879196;dashed=0;verticalLabelPosition=bottom;verticalAlign=top;align=center;html=1;fontSize=12;fontStyle=0;aspect=fixed;shape=mxgraph.aws4.illustration_users;pointerEvents=1" vertex="1" parent="1">
          <mxGeometry x="505" y="10" width="100" height="100" as="geometry" />
        </mxCell>
        <mxCell id="FSzWuWInuHZMy4j3IWyz-29" value="" style="endArrow=classic;html=1;rounded=0;fontColor=light-dark(#000000,#02C91A);strokeColor=light-dark(#000000,#0FC42A);" edge="1" parent="1">
          <mxGeometry width="50" height="50" relative="1" as="geometry">
            <mxPoint x="555" y="140" as="sourcePoint" />
            <mxPoint x="555" y="180" as="targetPoint" />
          </mxGeometry>
        </mxCell>
        <mxCell id="FSzWuWInuHZMy4j3IWyz-15" value="" style="sketch=0;points=[[0,0,0],[0.25,0,0],[0.5,0,0],[0.75,0,0],[1,0,0],[0,1,0],[0.25,1,0],[0.5,1,0],[0.75,1,0],[1,1,0],[0,0.25,0],[0,0.5,0],[0,0.75,0],[1,0.25,0],[1,0.5,0],[1,0.75,0]];outlineConnect=0;fontColor=#232F3E;fillColor=#ED7100;strokeColor=#ffffff;dashed=0;verticalLabelPosition=bottom;verticalAlign=top;align=center;html=1;fontSize=12;fontStyle=0;aspect=fixed;shape=mxgraph.aws4.resourceIcon;resIcon=mxgraph.aws4.ecs;" vertex="1" parent="1">
          <mxGeometry x="-480" y="640" width="40" height="40" as="geometry" />
        </mxCell>
        <mxCell id="FSzWuWInuHZMy4j3IWyz-5" value="" style="sketch=0;points=[[0,0,0],[0.25,0,0],[0.5,0,0],[0.75,0,0],[1,0,0],[0,1,0],[0.25,1,0],[0.5,1,0],[0.75,1,0],[1,1,0],[0,0.25,0],[0,0.5,0],[0,0.75,0],[1,0.25,0],[1,0.5,0],[1,0.75,0]];outlineConnect=0;fontColor=#232F3E;fillColor=#ED7100;strokeColor=#ffffff;dashed=0;verticalLabelPosition=bottom;verticalAlign=top;align=center;html=1;fontSize=12;fontStyle=0;aspect=fixed;shape=mxgraph.aws4.resourceIcon;resIcon=mxgraph.aws4.ecs;" vertex="1" parent="1">
          <mxGeometry x="-430" y="695" width="40" height="40" as="geometry" />
        </mxCell>
      </root>
    </mxGraphModel>
  </diagram>
</mxfile>
